<mxfile host="app.diagrams.net" agent="Mozilla/5.0 (Windows NT 10.0; Win64; x64) AppleWebKit/537.36 (KHTML, like Gecko) Chrome/138.0.0.0 Safari/537.36" version="27.2.0">
  <diagram id="Ht1M8jgEwFfnCIfOTk4-" name="Page-1">
    <mxGraphModel dx="1188" dy="619" grid="1" gridSize="10" guides="1" tooltips="1" connect="1" arrows="1" fold="1" page="1" pageScale="1" pageWidth="1169" pageHeight="827" math="0" shadow="0">
      <root>
        <mxCell id="0" />
        <mxCell id="1" parent="0" />
        <mxCell id="UEzPUAAOIrF-is8g5C7q-128" style="edgeStyle=orthogonalEdgeStyle;rounded=0;orthogonalLoop=1;jettySize=auto;html=1;startArrow=open;startFill=0;endArrow=open;endFill=0;strokeWidth=2;strokeColor=#808080;" parent="1" source="UEzPUAAOIrF-is8g5C7q-109" target="UEzPUAAOIrF-is8g5C7q-114" edge="1">
          <mxGeometry relative="1" as="geometry">
            <Array as="points">
              <mxPoint x="310.5" y="461.5" />
              <mxPoint x="310.5" y="376.5" />
            </Array>
          </mxGeometry>
        </mxCell>
        <mxCell id="UEzPUAAOIrF-is8g5C7q-124" style="edgeStyle=orthogonalEdgeStyle;rounded=0;orthogonalLoop=1;jettySize=auto;html=1;startArrow=open;startFill=0;endArrow=open;endFill=0;strokeWidth=2;strokeColor=#808080;" parent="1" source="UEzPUAAOIrF-is8g5C7q-110" target="UEzPUAAOIrF-is8g5C7q-111" edge="1">
          <mxGeometry relative="1" as="geometry">
            <Array as="points">
              <mxPoint x="300.5" y="241.5" />
              <mxPoint x="300.5" y="101.5" />
            </Array>
          </mxGeometry>
        </mxCell>
        <mxCell id="UEzPUAAOIrF-is8g5C7q-127" style="edgeStyle=orthogonalEdgeStyle;rounded=0;orthogonalLoop=1;jettySize=auto;html=1;startArrow=open;startFill=0;endArrow=open;endFill=0;strokeWidth=2;strokeColor=#808080;" parent="1" source="UEzPUAAOIrF-is8g5C7q-110" target="UEzPUAAOIrF-is8g5C7q-114" edge="1">
          <mxGeometry relative="1" as="geometry">
            <Array as="points">
              <mxPoint x="311.5" y="281.5" />
              <mxPoint x="311.5" y="361.5" />
            </Array>
          </mxGeometry>
        </mxCell>
        <mxCell id="UEzPUAAOIrF-is8g5C7q-125" style="edgeStyle=orthogonalEdgeStyle;rounded=0;orthogonalLoop=1;jettySize=auto;html=1;startArrow=open;startFill=0;endArrow=open;endFill=0;strokeWidth=2;strokeColor=#808080;" parent="1" source="UEzPUAAOIrF-is8g5C7q-111" target="UEzPUAAOIrF-is8g5C7q-112" edge="1">
          <mxGeometry relative="1" as="geometry">
            <Array as="points">
              <mxPoint x="530.5" y="101.5" />
              <mxPoint x="530.5" y="101.5" />
            </Array>
          </mxGeometry>
        </mxCell>
        <mxCell id="UEzPUAAOIrF-is8g5C7q-129" style="edgeStyle=orthogonalEdgeStyle;rounded=0;orthogonalLoop=1;jettySize=auto;html=1;startArrow=open;startFill=0;endArrow=open;endFill=0;strokeWidth=2;strokeColor=#808080;" parent="1" source="UEzPUAAOIrF-is8g5C7q-114" target="7vSJ6xONjznLjvCcR-vl-2" edge="1">
          <mxGeometry relative="1" as="geometry">
            <Array as="points">
              <mxPoint x="630" y="360" />
              <mxPoint x="630" y="360" />
            </Array>
          </mxGeometry>
        </mxCell>
        <mxCell id="UEzPUAAOIrF-is8g5C7q-134" style="edgeStyle=orthogonalEdgeStyle;rounded=0;orthogonalLoop=1;jettySize=auto;html=1;startArrow=open;startFill=0;endArrow=open;endFill=0;strokeWidth=2;strokeColor=#808080;" parent="1" source="7vSJ6xONjznLjvCcR-vl-2" target="UEzPUAAOIrF-is8g5C7q-121" edge="1">
          <mxGeometry relative="1" as="geometry">
            <Array as="points">
              <mxPoint x="1630" y="530" />
              <mxPoint x="1630" y="531" />
            </Array>
          </mxGeometry>
        </mxCell>
        <mxCell id="UEzPUAAOIrF-is8g5C7q-135" style="edgeStyle=orthogonalEdgeStyle;rounded=0;orthogonalLoop=1;jettySize=auto;html=1;startArrow=open;startFill=0;endArrow=open;endFill=0;strokeWidth=2;strokeColor=#808080;" parent="1" source="7vSJ6xONjznLjvCcR-vl-2" target="UEzPUAAOIrF-is8g5C7q-122" edge="1">
          <mxGeometry relative="1" as="geometry">
            <Array as="points">
              <mxPoint x="1650" y="650" />
              <mxPoint x="1650" y="650" />
            </Array>
          </mxGeometry>
        </mxCell>
        <mxCell id="UEzPUAAOIrF-is8g5C7q-136" style="edgeStyle=orthogonalEdgeStyle;rounded=0;orthogonalLoop=1;jettySize=auto;html=1;startArrow=open;startFill=0;endArrow=open;endFill=0;strokeWidth=2;strokeColor=#808080;" parent="1" source="7vSJ6xONjznLjvCcR-vl-2" target="UEzPUAAOIrF-is8g5C7q-123" edge="1">
          <mxGeometry relative="1" as="geometry">
            <Array as="points">
              <mxPoint x="1650" y="740" />
              <mxPoint x="1650" y="740" />
            </Array>
          </mxGeometry>
        </mxCell>
        <mxCell id="UEzPUAAOIrF-is8g5C7q-137" value="" style="edgeStyle=orthogonalEdgeStyle;rounded=0;orthogonalLoop=1;jettySize=auto;html=1;startArrow=none;startFill=0;endArrow=open;endFill=0;strokeWidth=2;strokeColor=#808080;" parent="1" edge="1">
          <mxGeometry relative="1" as="geometry">
            <mxPoint x="930.5" y="162.5" as="targetPoint" />
          </mxGeometry>
        </mxCell>
        <mxCell id="UEzPUAAOIrF-is8g5C7q-139" style="edgeStyle=orthogonalEdgeStyle;rounded=0;orthogonalLoop=1;jettySize=auto;html=1;startArrow=open;startFill=0;endArrow=open;endFill=0;strokeWidth=2;strokeColor=#808080;" parent="1" source="UEzPUAAOIrF-is8g5C7q-110" target="UEzPUAAOIrF-is8g5C7q-111" edge="1">
          <mxGeometry relative="1" as="geometry">
            <mxPoint x="270.2846463484759" y="261.67647058823536" as="sourcePoint" />
            <mxPoint x="422.5" y="124.02941176470586" as="targetPoint" />
            <Array as="points">
              <mxPoint x="311.5" y="261.5" />
              <mxPoint x="311.5" y="121.5" />
            </Array>
          </mxGeometry>
        </mxCell>
        <mxCell id="UEzPUAAOIrF-is8g5C7q-142" style="edgeStyle=orthogonalEdgeStyle;rounded=0;orthogonalLoop=1;jettySize=auto;html=1;startArrow=open;startFill=0;endArrow=open;endFill=0;strokeWidth=2;strokeColor=#808080;" parent="1" source="UEzPUAAOIrF-is8g5C7q-114" target="7vSJ6xONjznLjvCcR-vl-2" edge="1">
          <mxGeometry relative="1" as="geometry">
            <mxPoint x="457.5" y="386.5" as="sourcePoint" />
            <mxPoint x="590.5" y="386.5" as="targetPoint" />
            <Array as="points">
              <mxPoint x="630" y="380" />
              <mxPoint x="630" y="380" />
            </Array>
          </mxGeometry>
        </mxCell>
        <mxCell id="UEzPUAAOIrF-is8g5C7q-143" style="edgeStyle=orthogonalEdgeStyle;rounded=0;orthogonalLoop=1;jettySize=auto;html=1;startArrow=open;startFill=0;endArrow=open;endFill=0;strokeWidth=2;strokeColor=#808080;" parent="1" source="UEzPUAAOIrF-is8g5C7q-111" target="UEzPUAAOIrF-is8g5C7q-112" edge="1">
          <mxGeometry relative="1" as="geometry">
            <mxPoint x="500.5" y="111.5" as="sourcePoint" />
            <mxPoint x="578.5" y="111.5" as="targetPoint" />
            <Array as="points">
              <mxPoint x="530.5" y="121.5" />
              <mxPoint x="530.5" y="121.5" />
            </Array>
          </mxGeometry>
        </mxCell>
        <mxCell id="UEzPUAAOIrF-is8g5C7q-109" value="data lake CLI" style="outlineConnect=0;gradientColor=none;fontColor=#545B64;strokeColor=none;fillColor=#879196;dashed=0;verticalLabelPosition=bottom;verticalAlign=top;align=center;html=1;fontSize=12;fontStyle=0;aspect=fixed;shape=mxgraph.aws4.illustration_desktop;pointerEvents=1;labelBackgroundColor=#ffffff;" parent="1" vertex="1">
          <mxGeometry x="160.5" y="415.5" width="100" height="91" as="geometry" />
        </mxCell>
        <mxCell id="UEzPUAAOIrF-is8g5C7q-110" value="data lake console" style="outlineConnect=0;gradientColor=none;fontColor=#545B64;strokeColor=none;fillColor=#879196;dashed=0;verticalLabelPosition=bottom;verticalAlign=top;align=center;html=1;fontSize=12;fontStyle=0;aspect=fixed;shape=mxgraph.aws4.illustration_notification;pointerEvents=1;labelBackgroundColor=#ffffff;" parent="1" vertex="1">
          <mxGeometry x="160.5" y="221.5" width="100" height="81" as="geometry" />
        </mxCell>
        <mxCell id="UEzPUAAOIrF-is8g5C7q-111" value="Amazon &lt;br&gt;Cognito" style="outlineConnect=0;fontColor=#232F3E;gradientColor=#F54749;gradientDirection=north;fillColor=#C7131F;strokeColor=#ffffff;dashed=0;verticalLabelPosition=bottom;verticalAlign=top;align=center;html=1;fontSize=12;fontStyle=0;aspect=fixed;shape=mxgraph.aws4.resourceIcon;resIcon=mxgraph.aws4.cognito;labelBackgroundColor=#ffffff;" parent="1" vertex="1">
          <mxGeometry x="412.5" y="74.5" width="78" height="78" as="geometry" />
        </mxCell>
        <mxCell id="UEzPUAAOIrF-is8g5C7q-112" value="Active&lt;br&gt;Directory" style="outlineConnect=0;fontColor=#232F3E;gradientColor=#F54749;gradientDirection=north;fillColor=#C7131F;strokeColor=#ffffff;dashed=0;verticalLabelPosition=bottom;verticalAlign=top;align=center;html=1;fontSize=12;fontStyle=0;aspect=fixed;shape=mxgraph.aws4.resourceIcon;resIcon=mxgraph.aws4.cloud_directory;labelBackgroundColor=#ffffff;" parent="1" vertex="1">
          <mxGeometry x="568.5" y="74.5" width="78" height="78" as="geometry" />
        </mxCell>
        <mxCell id="UEzPUAAOIrF-is8g5C7q-114" value="Amazon API&lt;br&gt;Gateway&lt;br&gt;" style="outlineConnect=0;fontColor=#232F3E;gradientColor=#945DF2;gradientDirection=north;fillColor=#5A30B5;strokeColor=#ffffff;dashed=0;verticalLabelPosition=bottom;verticalAlign=top;align=center;html=1;fontSize=12;fontStyle=0;aspect=fixed;shape=mxgraph.aws4.resourceIcon;resIcon=mxgraph.aws4.api_gateway;labelBackgroundColor=#ffffff;" parent="1" vertex="1">
          <mxGeometry x="369.5" y="337.5" width="78" height="78" as="geometry" />
        </mxCell>
        <mxCell id="UEzPUAAOIrF-is8g5C7q-121" value="Amazon&lt;br&gt;CloudWatch&lt;br&gt;" style="outlineConnect=0;fontColor=#232F3E;gradientColor=#F34482;gradientDirection=north;fillColor=#BC1356;strokeColor=#ffffff;dashed=0;verticalLabelPosition=bottom;verticalAlign=top;align=center;html=1;fontSize=12;fontStyle=0;aspect=fixed;shape=mxgraph.aws4.resourceIcon;resIcon=mxgraph.aws4.cloudwatch;labelBackgroundColor=#ffffff;" parent="1" vertex="1">
          <mxGeometry x="1710.0000000000002" y="491.5" width="78" height="78" as="geometry" />
        </mxCell>
        <mxCell id="UEzPUAAOIrF-is8g5C7q-122" value="IAM Roles" style="outlineConnect=0;fontColor=#232F3E;gradientColor=none;fillColor=#C7131F;strokeColor=none;dashed=0;verticalLabelPosition=bottom;verticalAlign=top;align=center;html=1;fontSize=12;fontStyle=0;aspect=fixed;pointerEvents=1;shape=mxgraph.aws4.role;labelBackgroundColor=#ffffff;" parent="1" vertex="1">
          <mxGeometry x="1710.0000000000002" y="631.5" width="78" height="44" as="geometry" />
        </mxCell>
        <mxCell id="UEzPUAAOIrF-is8g5C7q-123" value="Amazon&lt;br&gt;CloudWatch Logs&lt;br&gt;" style="outlineConnect=0;fontColor=#232F3E;gradientColor=none;gradientDirection=north;fillColor=#F34482;strokeColor=none;dashed=0;verticalLabelPosition=bottom;verticalAlign=top;align=center;html=1;fontSize=12;fontStyle=0;aspect=fixed;shape=mxgraph.aws4.cloudwatch;labelBackgroundColor=#ffffff;" parent="1" vertex="1">
          <mxGeometry x="1710.0000000000002" y="701.5" width="78" height="78" as="geometry" />
        </mxCell>
        <mxCell id="7vSJ6xONjznLjvCcR-vl-2" value="AWS Cloud" style="points=[[0,0],[0.25,0],[0.5,0],[0.75,0],[1,0],[1,0.25],[1,0.5],[1,0.75],[1,1],[0.75,1],[0.5,1],[0.25,1],[0,1],[0,0.75],[0,0.5],[0,0.25]];outlineConnect=0;gradientColor=none;html=1;whiteSpace=wrap;fontSize=12;fontStyle=0;container=1;pointerEvents=0;collapsible=0;recursiveResize=0;shape=mxgraph.aws4.group;grIcon=mxgraph.aws4.group_aws_cloud_alt;strokeColor=#232F3E;fillColor=none;verticalAlign=top;align=left;spacingLeft=30;fontColor=#232F3E;dashed=0;" parent="1" vertex="1">
          <mxGeometry x="810" y="22.5" width="770" height="777.5" as="geometry" />
        </mxCell>
        <mxCell id="UEzPUAAOIrF-is8g5C7q-116" value="Amazon S3" style="outlineConnect=0;fontColor=#232F3E;gradientColor=#60A337;gradientDirection=north;fillColor=#277116;strokeColor=#ffffff;dashed=0;verticalLabelPosition=bottom;verticalAlign=top;align=center;html=1;fontSize=12;fontStyle=0;aspect=fixed;shape=mxgraph.aws4.resourceIcon;resIcon=mxgraph.aws4.s3;labelBackgroundColor=#ffffff;" parent="7vSJ6xONjznLjvCcR-vl-2" vertex="1">
          <mxGeometry x="330.0000000000002" y="177.5" width="78" height="78" as="geometry" />
        </mxCell>
        <mxCell id="UEzPUAAOIrF-is8g5C7q-130" style="edgeStyle=orthogonalEdgeStyle;rounded=0;orthogonalLoop=1;jettySize=auto;html=1;startArrow=open;startFill=0;endArrow=open;endFill=0;strokeWidth=2;strokeColor=#808080;" parent="7vSJ6xONjznLjvCcR-vl-2" source="UEzPUAAOIrF-is8g5C7q-116" target="0HbtIbHRWMiiqyWzeZQC-4" edge="1">
          <mxGeometry relative="1" as="geometry">
            <Array as="points">
              <mxPoint x="89" y="237" />
            </Array>
          </mxGeometry>
        </mxCell>
        <mxCell id="UEzPUAAOIrF-is8g5C7q-115" value="ControllerIngredientes" style="outlineConnect=0;fontColor=#232F3E;gradientColor=none;fillColor=#D05C17;strokeColor=none;dashed=0;verticalLabelPosition=bottom;verticalAlign=top;align=center;html=1;fontSize=12;fontStyle=0;aspect=fixed;pointerEvents=1;shape=mxgraph.aws4.lambda_function;labelBackgroundColor=#ffffff;" parent="7vSJ6xONjznLjvCcR-vl-2" vertex="1">
          <mxGeometry x="50" y="507.5" width="78" height="78" as="geometry" />
        </mxCell>
        <mxCell id="UEzPUAAOIrF-is8g5C7q-119" value="Promocao" style="outlineConnect=0;fontColor=#232F3E;gradientColor=#4D72F3;gradientDirection=north;fillColor=#3334B9;strokeColor=#ffffff;dashed=0;verticalLabelPosition=bottom;verticalAlign=top;align=center;html=1;fontSize=12;fontStyle=0;aspect=fixed;shape=mxgraph.aws4.resourceIcon;resIcon=mxgraph.aws4.dynamodb;labelBackgroundColor=#ffffff;spacingTop=5;" parent="7vSJ6xONjznLjvCcR-vl-2" vertex="1">
          <mxGeometry x="630.0000000000002" y="657.5" width="78" height="78" as="geometry" />
        </mxCell>
        <mxCell id="UEzPUAAOIrF-is8g5C7q-132" style="edgeStyle=orthogonalEdgeStyle;rounded=0;orthogonalLoop=1;jettySize=auto;html=1;startArrow=open;startFill=0;endArrow=open;endFill=0;strokeWidth=2;strokeColor=#808080;" parent="7vSJ6xONjznLjvCcR-vl-2" source="0HbtIbHRWMiiqyWzeZQC-2" target="UEzPUAAOIrF-is8g5C7q-119" edge="1">
          <mxGeometry relative="1" as="geometry">
            <Array as="points">
              <mxPoint x="659" y="558" />
              <mxPoint x="659" y="558" />
            </Array>
          </mxGeometry>
        </mxCell>
        <mxCell id="0HbtIbHRWMiiqyWzeZQC-1" value="ControllerOrder" style="outlineConnect=0;fontColor=#232F3E;gradientColor=none;fillColor=#D05C17;strokeColor=none;dashed=0;verticalLabelPosition=bottom;verticalAlign=top;align=center;html=1;fontSize=12;fontStyle=0;aspect=fixed;pointerEvents=1;shape=mxgraph.aws4.lambda_function;labelBackgroundColor=#ffffff;" parent="7vSJ6xONjznLjvCcR-vl-2" vertex="1">
          <mxGeometry x="50" y="77.5" width="78" height="78" as="geometry" />
        </mxCell>
        <mxCell id="0HbtIbHRWMiiqyWzeZQC-2" value="ControllerPromocao" style="outlineConnect=0;fontColor=#232F3E;gradientColor=none;fillColor=#D05C17;strokeColor=none;dashed=0;verticalLabelPosition=bottom;verticalAlign=top;align=center;html=1;fontSize=12;fontStyle=0;aspect=fixed;pointerEvents=1;shape=mxgraph.aws4.lambda_function;labelBackgroundColor=#ffffff;" parent="7vSJ6xONjznLjvCcR-vl-2" vertex="1">
          <mxGeometry x="620" y="377.5" width="78" height="78" as="geometry" />
        </mxCell>
        <mxCell id="0HbtIbHRWMiiqyWzeZQC-3" value="ControllerEndereco" style="outlineConnect=0;fontColor=#232F3E;gradientColor=none;fillColor=#D05C17;strokeColor=none;dashed=0;verticalLabelPosition=bottom;verticalAlign=top;align=center;html=1;fontSize=12;fontStyle=0;aspect=fixed;pointerEvents=1;shape=mxgraph.aws4.lambda_function;labelBackgroundColor=#ffffff;" parent="7vSJ6xONjznLjvCcR-vl-2" vertex="1">
          <mxGeometry x="598" y="237.5" width="78" height="78" as="geometry" />
        </mxCell>
        <mxCell id="0HbtIbHRWMiiqyWzeZQC-4" value="ControllerProdutos" style="outlineConnect=0;fontColor=#232F3E;gradientColor=none;fillColor=#D05C17;strokeColor=none;dashed=0;verticalLabelPosition=bottom;verticalAlign=top;align=center;html=1;fontSize=12;fontStyle=0;aspect=fixed;pointerEvents=1;shape=mxgraph.aws4.lambda_function;labelBackgroundColor=#ffffff;" parent="7vSJ6xONjznLjvCcR-vl-2" vertex="1">
          <mxGeometry x="50" y="267.5" width="78" height="78" as="geometry" />
        </mxCell>
        <mxCell id="0HbtIbHRWMiiqyWzeZQC-5" value="Endereco" style="outlineConnect=0;fontColor=#232F3E;gradientColor=#4D72F3;gradientDirection=north;fillColor=#3334B9;strokeColor=#ffffff;dashed=0;verticalLabelPosition=bottom;verticalAlign=top;align=center;html=1;fontSize=12;fontStyle=0;aspect=fixed;shape=mxgraph.aws4.resourceIcon;resIcon=mxgraph.aws4.dynamodb;labelBackgroundColor=#ffffff;spacingTop=5;" parent="7vSJ6xONjznLjvCcR-vl-2" vertex="1">
          <mxGeometry x="520" y="67.5" width="78" height="78" as="geometry" />
        </mxCell>
        <mxCell id="0HbtIbHRWMiiqyWzeZQC-6" style="edgeStyle=orthogonalEdgeStyle;rounded=0;orthogonalLoop=1;jettySize=auto;html=1;startArrow=open;startFill=0;endArrow=open;endFill=0;strokeWidth=2;strokeColor=#808080;" parent="7vSJ6xONjznLjvCcR-vl-2" source="0HbtIbHRWMiiqyWzeZQC-5" target="0HbtIbHRWMiiqyWzeZQC-3" edge="1">
          <mxGeometry relative="1" as="geometry">
            <Array as="points">
              <mxPoint x="626" y="98" />
            </Array>
            <mxPoint x="626" y="87.5" as="sourcePoint" />
            <mxPoint x="586" y="227.5" as="targetPoint" />
          </mxGeometry>
        </mxCell>
        <mxCell id="0HbtIbHRWMiiqyWzeZQC-7" value="Orders" style="outlineConnect=0;fontColor=#232F3E;gradientColor=#4D72F3;gradientDirection=north;fillColor=#3334B9;strokeColor=#ffffff;dashed=0;verticalLabelPosition=bottom;verticalAlign=top;align=center;html=1;fontSize=12;fontStyle=0;aspect=fixed;shape=mxgraph.aws4.resourceIcon;resIcon=mxgraph.aws4.dynamodb;labelBackgroundColor=#ffffff;spacingTop=5;" parent="7vSJ6xONjznLjvCcR-vl-2" vertex="1">
          <mxGeometry x="290.0000000000002" y="17.5" width="78" height="78" as="geometry" />
        </mxCell>
        <mxCell id="0HbtIbHRWMiiqyWzeZQC-8" style="edgeStyle=orthogonalEdgeStyle;rounded=0;orthogonalLoop=1;jettySize=auto;html=1;startArrow=open;startFill=0;endArrow=open;endFill=0;strokeWidth=2;strokeColor=#808080;" parent="7vSJ6xONjznLjvCcR-vl-2" source="0HbtIbHRWMiiqyWzeZQC-1" target="0HbtIbHRWMiiqyWzeZQC-7" edge="1">
          <mxGeometry relative="1" as="geometry">
            <Array as="points">
              <mxPoint x="89" y="48" />
            </Array>
            <mxPoint x="127.99911285002622" y="147.5" as="sourcePoint" />
            <mxPoint x="290.0000000000002" y="147.5" as="targetPoint" />
          </mxGeometry>
        </mxCell>
        <mxCell id="0HbtIbHRWMiiqyWzeZQC-9" value="Ingredientes" style="outlineConnect=0;fontColor=#232F3E;gradientColor=#4D72F3;gradientDirection=north;fillColor=#3334B9;strokeColor=#ffffff;dashed=0;verticalLabelPosition=bottom;verticalAlign=top;align=center;html=1;fontSize=12;fontStyle=0;aspect=fixed;shape=mxgraph.aws4.resourceIcon;resIcon=mxgraph.aws4.dynamodb;labelBackgroundColor=#ffffff;spacingTop=5;" parent="7vSJ6xONjznLjvCcR-vl-2" vertex="1">
          <mxGeometry x="330.0000000000002" y="497.5" width="78" height="78" as="geometry" />
        </mxCell>
        <mxCell id="0HbtIbHRWMiiqyWzeZQC-10" style="edgeStyle=orthogonalEdgeStyle;rounded=0;orthogonalLoop=1;jettySize=auto;html=1;startArrow=open;startFill=0;endArrow=open;endFill=0;strokeWidth=2;strokeColor=#808080;" parent="7vSJ6xONjznLjvCcR-vl-2" source="UEzPUAAOIrF-is8g5C7q-115" target="0HbtIbHRWMiiqyWzeZQC-9" edge="1">
          <mxGeometry relative="1" as="geometry">
            <Array as="points">
              <mxPoint x="170" y="518" />
              <mxPoint x="170" y="518" />
            </Array>
            <mxPoint x="128" y="485.75" as="sourcePoint" />
          </mxGeometry>
        </mxCell>
        <mxCell id="0HbtIbHRWMiiqyWzeZQC-11" value="Produtos" style="outlineConnect=0;fontColor=#232F3E;gradientColor=#4D72F3;gradientDirection=north;fillColor=#3334B9;strokeColor=#ffffff;dashed=0;verticalLabelPosition=bottom;verticalAlign=top;align=center;html=1;fontSize=12;fontStyle=0;aspect=fixed;shape=mxgraph.aws4.resourceIcon;resIcon=mxgraph.aws4.dynamodb;labelBackgroundColor=#ffffff;spacingTop=5;" parent="7vSJ6xONjznLjvCcR-vl-2" vertex="1">
          <mxGeometry x="320.0000000000002" y="352.5" width="78" height="78" as="geometry" />
        </mxCell>
        <mxCell id="0HbtIbHRWMiiqyWzeZQC-12" style="edgeStyle=orthogonalEdgeStyle;rounded=0;orthogonalLoop=1;jettySize=auto;html=1;startArrow=open;startFill=0;endArrow=open;endFill=0;strokeWidth=2;strokeColor=#808080;" parent="7vSJ6xONjznLjvCcR-vl-2" source="0HbtIbHRWMiiqyWzeZQC-4" target="0HbtIbHRWMiiqyWzeZQC-11" edge="1">
          <mxGeometry relative="1" as="geometry">
            <Array as="points">
              <mxPoint x="370" y="277" />
            </Array>
            <mxPoint x="128" y="309.75" as="sourcePoint" />
          </mxGeometry>
        </mxCell>
        <mxCell id="0HbtIbHRWMiiqyWzeZQC-13" style="edgeStyle=orthogonalEdgeStyle;rounded=0;orthogonalLoop=1;jettySize=auto;html=1;startArrow=open;startFill=0;endArrow=open;endFill=0;strokeWidth=2;strokeColor=#808080;" parent="7vSJ6xONjznLjvCcR-vl-2" source="0HbtIbHRWMiiqyWzeZQC-2" target="UEzPUAAOIrF-is8g5C7q-119" edge="1">
          <mxGeometry relative="1" as="geometry">
            <Array as="points">
              <mxPoint x="680" y="558" />
              <mxPoint x="680" y="558" />
            </Array>
            <mxPoint x="518" y="433.08000000000004" as="sourcePoint" />
            <mxPoint x="680" y="433.08000000000004" as="targetPoint" />
          </mxGeometry>
        </mxCell>
        <mxCell id="0HbtIbHRWMiiqyWzeZQC-14" style="edgeStyle=orthogonalEdgeStyle;rounded=0;orthogonalLoop=1;jettySize=auto;html=1;startArrow=open;startFill=0;endArrow=open;endFill=0;strokeWidth=2;strokeColor=#808080;" parent="7vSJ6xONjznLjvCcR-vl-2" source="0HbtIbHRWMiiqyWzeZQC-4" target="0HbtIbHRWMiiqyWzeZQC-11" edge="1">
          <mxGeometry relative="1" as="geometry">
            <Array as="points">
              <mxPoint x="350" y="297" />
            </Array>
            <mxPoint x="128" y="317.5" as="sourcePoint" />
            <mxPoint x="290" y="317.5" as="targetPoint" />
          </mxGeometry>
        </mxCell>
        <mxCell id="0HbtIbHRWMiiqyWzeZQC-15" style="edgeStyle=orthogonalEdgeStyle;rounded=0;orthogonalLoop=1;jettySize=auto;html=1;startArrow=open;startFill=0;endArrow=open;endFill=0;strokeWidth=2;strokeColor=#808080;" parent="7vSJ6xONjznLjvCcR-vl-2" source="0HbtIbHRWMiiqyWzeZQC-1" target="0HbtIbHRWMiiqyWzeZQC-7" edge="1">
          <mxGeometry relative="1" as="geometry">
            <Array as="points">
              <mxPoint x="150" y="78" />
              <mxPoint x="150" y="78" />
            </Array>
            <mxPoint x="128" y="177.5" as="sourcePoint" />
            <mxPoint x="290.000887149974" y="177.5" as="targetPoint" />
          </mxGeometry>
        </mxCell>
        <mxCell id="0HbtIbHRWMiiqyWzeZQC-16" style="edgeStyle=orthogonalEdgeStyle;rounded=0;orthogonalLoop=1;jettySize=auto;html=1;startArrow=open;startFill=0;endArrow=open;endFill=0;strokeWidth=2;strokeColor=#808080;" parent="7vSJ6xONjznLjvCcR-vl-2" source="UEzPUAAOIrF-is8g5C7q-115" target="0HbtIbHRWMiiqyWzeZQC-9" edge="1">
          <mxGeometry relative="1" as="geometry">
            <Array as="points">
              <mxPoint x="230" y="558" />
              <mxPoint x="230" y="558" />
            </Array>
            <mxPoint x="128" y="497.5" as="sourcePoint" />
            <mxPoint x="290" y="497.5" as="targetPoint" />
          </mxGeometry>
        </mxCell>
        <mxCell id="0HbtIbHRWMiiqyWzeZQC-17" style="edgeStyle=orthogonalEdgeStyle;rounded=0;orthogonalLoop=1;jettySize=auto;html=1;startArrow=open;startFill=0;endArrow=open;endFill=0;strokeWidth=2;strokeColor=#808080;" parent="7vSJ6xONjznLjvCcR-vl-2" source="0HbtIbHRWMiiqyWzeZQC-1" target="0HbtIbHRWMiiqyWzeZQC-11" edge="1">
          <mxGeometry relative="1" as="geometry">
            <Array as="points">
              <mxPoint x="180" y="147" />
              <mxPoint x="180" y="392" />
            </Array>
            <mxPoint x="140" y="217.5" as="sourcePoint" />
            <mxPoint x="302" y="217.5" as="targetPoint" />
          </mxGeometry>
        </mxCell>
        <mxCell id="0HbtIbHRWMiiqyWzeZQC-18" style="edgeStyle=orthogonalEdgeStyle;rounded=0;orthogonalLoop=1;jettySize=auto;html=1;startArrow=open;startFill=0;endArrow=open;endFill=0;strokeWidth=2;strokeColor=#808080;" parent="7vSJ6xONjznLjvCcR-vl-2" source="UEzPUAAOIrF-is8g5C7q-115" target="0HbtIbHRWMiiqyWzeZQC-11" edge="1">
          <mxGeometry relative="1" as="geometry">
            <Array as="points">
              <mxPoint x="89" y="417" />
            </Array>
            <mxPoint x="128" y="417.5" as="sourcePoint" />
            <mxPoint x="290" y="417.5" as="targetPoint" />
          </mxGeometry>
        </mxCell>
        <mxCell id="0HbtIbHRWMiiqyWzeZQC-20" style="edgeStyle=orthogonalEdgeStyle;rounded=0;orthogonalLoop=1;jettySize=auto;html=1;startArrow=open;startFill=0;endArrow=open;endFill=0;strokeWidth=2;strokeColor=#808080;" parent="7vSJ6xONjznLjvCcR-vl-2" source="0HbtIbHRWMiiqyWzeZQC-1" target="0HbtIbHRWMiiqyWzeZQC-5" edge="1">
          <mxGeometry relative="1" as="geometry">
            <Array as="points">
              <mxPoint x="460" y="128" />
              <mxPoint x="460" y="107" />
            </Array>
            <mxPoint x="620" y="187.5" as="sourcePoint" />
            <mxPoint x="648" y="326.5" as="targetPoint" />
          </mxGeometry>
        </mxCell>
        <mxCell id="0HbtIbHRWMiiqyWzeZQC-21" style="edgeStyle=orthogonalEdgeStyle;rounded=0;orthogonalLoop=1;jettySize=auto;html=1;startArrow=open;startFill=0;endArrow=open;endFill=0;strokeWidth=2;strokeColor=#808080;" parent="7vSJ6xONjznLjvCcR-vl-2" source="0HbtIbHRWMiiqyWzeZQC-5" target="0HbtIbHRWMiiqyWzeZQC-3" edge="1">
          <mxGeometry relative="1" as="geometry">
            <Array as="points">
              <mxPoint x="648" y="77.5" />
            </Array>
            <mxPoint x="620" y="147.5" as="sourcePoint" />
            <mxPoint x="648" y="287.5" as="targetPoint" />
          </mxGeometry>
        </mxCell>
        <mxCell id="xN80rfbAcdWCL3vrbxQ6-2" style="edgeStyle=orthogonalEdgeStyle;rounded=0;orthogonalLoop=1;jettySize=auto;html=1;startArrow=open;startFill=0;endArrow=open;endFill=0;strokeWidth=2;strokeColor=#808080;" edge="1" parent="7vSJ6xONjznLjvCcR-vl-2" source="UEzPUAAOIrF-is8g5C7q-116" target="0HbtIbHRWMiiqyWzeZQC-2">
          <mxGeometry relative="1" as="geometry">
            <Array as="points">
              <mxPoint x="490" y="217" />
              <mxPoint x="490" y="417" />
            </Array>
            <mxPoint x="490" y="247.5" as="sourcePoint" />
            <mxPoint x="490" y="449.5" as="targetPoint" />
          </mxGeometry>
        </mxCell>
      </root>
    </mxGraphModel>
  </diagram>
</mxfile>
